<svg xmlns="http://www.w3.org/2000/svg" viewBox="0 0 640 360" role="img" aria-labelledby="title desc">
  <title id="title">STS2 AI project hero</title>
  <desc id="desc">A stylized card battle workspace with data and model blocks.</desc>
  <defs>
    <linearGradient id="bg" x1="0" y1="0" x2="1" y2="1">
      <stop offset="0" stop-color="#ffffff"/>
      <stop offset="1" stop-color="#edf5f2"/>
    </linearGradient>
    <linearGradient id="gold" x1="0" y1="0" x2="1" y2="1">
      <stop offset="0" stop-color="#f1d58a"/>
      <stop offset="1" stop-color="#d1a23a"/>
    </linearGradient>
    <linearGradient id="teal" x1="0" y1="0" x2="1" y2="1">
      <stop offset="0" stop-color="#d9f0ee"/>
      <stop offset="1" stop-color="#2f6f78"/>
    </linearGradient>
    <filter id="shadow" x="-20%" y="-20%" width="140%" height="140%">
      <feDropShadow dx="0" dy="12" stdDeviation="11" flood-color="#26373a" flood-opacity=".16"/>
    </filter>
  </defs>
  <rect width="640" height="360" rx="26" fill="url(#bg)"/>
  <path d="M36 284 C120 236 182 320 272 270 C350 226 388 164 492 188 C548 201 586 170 616 137" fill="none" stroke="#2f6f78" stroke-width="2" stroke-opacity=".14"/>
  <g filter="url(#shadow)">
    <rect x="70" y="82" width="112" height="158" rx="12" fill="#fff" stroke="#2f6f78" stroke-opacity=".32"/>
    <rect x="91" y="102" width="70" height="46" rx="8" fill="#edf5f2"/>
    <path d="M104 180 L126 152 L148 180 Z" fill="url(#gold)"/>
    <path d="M99 204 H154" stroke="#2f6f78" stroke-width="5" stroke-linecap="round" opacity=".35"/>
  </g>
  <g filter="url(#shadow)" transform="rotate(-8 250 174)">
    <rect x="206" y="70" width="112" height="168" rx="12" fill="#fff" stroke="#2f6f78" stroke-opacity=".32"/>
    <rect x="229" y="94" width="66" height="50" rx="8" fill="#f7ecd0"/>
    <path d="M241 171 H285 M241 194 H274" stroke="#2f6f78" stroke-width="6" stroke-linecap="round" opacity=".35"/>
    <circle cx="262" cy="119" r="20" fill="url(#gold)"/>
  </g>
  <g filter="url(#shadow)">
    <path d="M430 92 C477 88 510 117 512 160 C515 211 478 243 430 238 C389 234 361 204 363 162 C365 121 392 96 430 92 Z" fill="#fff" stroke="#2f6f78" stroke-opacity=".34"/>
    <path d="M398 150 Q430 112 463 150" fill="none" stroke="#26373a" stroke-width="7" stroke-linecap="round"/>
    <circle cx="412" cy="161" r="7" fill="#26373a"/>
    <circle cx="452" cy="161" r="7" fill="#26373a"/>
    <path d="M407 196 Q432 211 458 196" fill="none" stroke="#d1a23a" stroke-width="7" stroke-linecap="round"/>
  </g>
  <g transform="translate(335 242)">
    <rect x="0" y="0" width="214" height="62" rx="14" fill="#ffffff" stroke="#2f6f78" stroke-opacity=".24"/>
    <circle cx="32" cy="31" r="12" fill="url(#teal)"/>
    <circle cx="96" cy="31" r="12" fill="url(#gold)"/>
    <circle cx="160" cy="31" r="12" fill="#f0b9aa"/>
    <path d="M44 31 H84 M108 31 H148" stroke="#2f6f78" stroke-width="4" stroke-linecap="round" opacity=".45"/>
  </g>
  <g transform="translate(538 70)">
    <path d="M20 0 L40 12 L40 36 L20 48 L0 36 L0 12 Z" fill="#26373a"/>
    <path d="M20 0 L40 12 L20 24 L0 12 Z" fill="#ffffff" opacity=".88"/>
    <path d="M20 24 L40 12 L40 36 L20 48 Z" fill="#2f6f78"/>
    <circle cx="62" cy="14" r="4" fill="#d1a23a"/>
    <circle cx="70" cy="34" r="3" fill="#2f6f78"/>
  </g>
</svg>
