<svg xmlns="http://www.w3.org/2000/svg" viewBox="0 0 520 360" role="img" aria-labelledby="title desc">
  <title id="title">Cards, potion, and data capture</title>
  <desc id="desc">Stylized cards, a potion, enemy intent, and captured data rows.</desc>
  <defs>
    <linearGradient id="card" x1="0" y1="0" x2="1" y2="1">
      <stop offset="0" stop-color="#ffffff"/>
      <stop offset="1" stop-color="#edf5f2"/>
    </linearGradient>
    <linearGradient id="potion" x1="0" y1="0" x2="1" y2="1">
      <stop offset="0" stop-color="#9fd3d1"/>
      <stop offset="1" stop-color="#2f6f78"/>
    </linearGradient>
    <filter id="shadow" x="-20%" y="-20%" width="140%" height="140%">
      <feDropShadow dx="0" dy="10" stdDeviation="10" flood-color="#26373a" flood-opacity=".15"/>
    </filter>
  </defs>
  <rect width="520" height="360" rx="24" fill="#fbfaf5"/>
  <g filter="url(#shadow)">
    <rect x="56" y="74" width="116" height="178" rx="14" fill="url(#card)" stroke="#2f6f78" stroke-opacity=".32"/>
    <rect x="202" y="56" width="116" height="178" rx="14" fill="#fff" stroke="#2f6f78" stroke-opacity=".32"/>
    <rect x="148" y="112" width="116" height="178" rx="14" fill="#fff" stroke="#2f6f78" stroke-opacity=".32"/>
  </g>
  <path d="M87 151 H140 M87 178 H130" stroke="#2f6f78" stroke-width="7" stroke-linecap="round" opacity=".34"/>
  <path d="M233 131 L260 92 L287 131 Z" fill="#d1a23a"/>
  <circle cx="206" cy="192" r="28" fill="#f6df9e"/>
  <path d="M191 235 H222" stroke="#26373a" stroke-width="7" stroke-linecap="round" opacity=".38"/>
  <g transform="translate(342 74)">
    <path d="M40 0 H78 V26 C78 38 62 39 62 52 V102 C62 126 14 126 14 102 V52 C14 39 0 38 0 26 V0 Z" fill="#ffffff" stroke="#2f6f78" stroke-opacity=".36"/>
    <path d="M20 60 C36 48 54 48 70 60 V101 C70 116 20 116 20 101 Z" fill="url(#potion)" opacity=".86"/>
    <path d="M18 18 H62" stroke="#d1a23a" stroke-width="7" stroke-linecap="round"/>
  </g>
  <g transform="translate(314 226)">
    <rect x="0" y="0" width="150" height="58" rx="12" fill="#fff" stroke="#2f6f78" stroke-opacity=".24"/>
    <path d="M18 19 H72 M18 38 H132" stroke="#2f6f78" stroke-width="5" stroke-linecap="round" opacity=".28"/>
    <circle cx="122" cy="18" r="9" fill="#d1a23a"/>
  </g>
  <path d="M76 296 C160 326 272 314 394 302" fill="none" stroke="#2f6f78" stroke-width="2" stroke-opacity=".18"/>
</svg>
